<svg width="190" height="41" viewBox="0 0 190 41" fill="none" xmlns="http://www.w3.org/2000/svg">
<path d="M73.7383 14.9016V30.4C73.7383 33.8133 72.8492 36.3503 71.0708 38.0108C69.2924 39.6713 66.6941 40.5016 63.2759 40.5016C61.4744 40.5016 59.7653 40.2825 58.1486 39.8443C56.5319 39.4061 55.1923 38.7719 54.1299 37.9416L56.2778 34.067C57.0631 34.7128 58.0562 35.2202 59.2572 35.5892C60.4582 35.9812 61.6592 36.1773 62.8602 36.1773C64.7309 36.1773 66.1051 35.7506 66.9828 34.8973C67.8835 34.067 68.3339 32.7985 68.3339 31.0919V30.2962C66.9251 31.8414 64.9619 32.614 62.4444 32.614C60.7353 32.614 59.1648 32.245 57.7329 31.507C56.324 30.7459 55.2039 29.685 54.3724 28.3243C53.541 26.9636 53.1252 25.3953 53.1252 23.6194C53.1252 21.8436 53.541 20.2753 54.3724 18.9146C55.2039 17.5539 56.324 16.5045 57.7329 15.7665C59.1648 15.0054 60.7353 14.6249 62.4444 14.6249C65.1467 14.6249 67.2022 15.5128 68.6111 17.2886V14.9016H73.7383ZM63.5184 28.1859C64.9504 28.1859 66.1167 27.7708 67.0174 26.9405C67.9413 26.0872 68.4032 24.9802 68.4032 23.6194C68.4032 22.2587 67.9413 21.1632 67.0174 20.333C66.1167 19.4796 64.9504 19.053 63.5184 19.053C62.0865 19.053 60.9086 19.4796 59.9847 20.333C59.0609 21.1632 58.599 22.2587 58.599 23.6194C58.599 24.9802 59.0609 26.0872 59.9847 26.9405C60.9086 27.7708 62.0865 28.1859 63.5184 28.1859Z" fill="#F3F3F3"/>
<path d="M84.6926 15.3168H89.4734V19.4681H84.8312V33.5135H79.4267V19.4681H76.5513V15.3168H79.4267V14.4865C79.4267 12.3647 80.0503 10.6811 81.2975 9.43567C82.5678 8.19027 84.3461 7.56757 86.6326 7.56757C87.441 7.56757 88.2032 7.65982 88.9191 7.84432C89.6582 8.00577 90.2702 8.24793 90.7553 8.57081L89.3349 12.48C88.7113 12.0418 87.9837 11.8227 87.1523 11.8227C85.5125 11.8227 84.6926 12.7222 84.6926 14.5211V15.3168Z" fill="#F3F3F3"/>
<path d="M100.798 33.7903C98.8348 33.7903 97.0679 33.3867 95.4974 32.5794C93.95 31.7492 92.7374 30.6076 91.8598 29.1546C90.9822 27.7016 90.5433 26.0526 90.5433 24.2076C90.5433 22.3625 90.9822 20.7135 91.8598 19.2605C92.7374 17.8076 93.95 16.6775 95.4974 15.8703C97.0679 15.04 98.8348 14.6249 100.798 14.6249C102.761 14.6249 104.516 15.04 106.064 15.8703C107.611 16.6775 108.824 17.8076 109.701 19.2605C110.579 20.7135 111.018 22.3625 111.018 24.2076C111.018 26.0526 110.579 27.7016 109.701 29.1546C108.824 30.6076 107.611 31.7492 106.064 32.5794C104.516 33.3867 102.761 33.7903 100.798 33.7903ZM100.798 29.3622C102.184 29.3622 103.315 28.9009 104.193 27.9784C105.094 27.0328 105.544 25.7758 105.544 24.2076C105.544 22.6393 105.094 21.3939 104.193 20.4713C103.315 19.5258 102.184 19.053 100.798 19.053C99.4122 19.053 98.2689 19.5258 97.3682 20.4713C96.4674 21.3939 96.0171 22.6393 96.0171 24.2076C96.0171 25.7758 96.4674 27.0328 97.3682 27.9784C98.2689 28.9009 99.4122 29.3622 100.798 29.3622Z" fill="#F3F3F3"/>
<path d="M114.63 7.84432H120.035V33.5135H114.63V7.84432Z" fill="#F3F3F3"/>
<path d="M125.051 14.9016H130.455V33.5135H125.051V14.9016ZM127.753 12.307C126.76 12.307 125.951 12.0187 125.328 11.4422C124.704 10.8656 124.392 10.1506 124.392 9.2973C124.392 8.44396 124.704 7.72901 125.328 7.15243C125.951 6.57586 126.76 6.28757 127.753 6.28757C128.746 6.28757 129.554 6.56432 130.178 7.11784C130.801 7.67135 131.113 8.36324 131.113 9.19351C131.113 10.093 130.801 10.8425 130.178 11.4422C129.554 12.0187 128.746 12.307 127.753 12.307Z" fill="#F3F3F3"/>
<path d="M153.971 14.9016L146.106 33.5135H140.529L132.699 14.9016H138.277L143.439 27.5632L148.774 14.9016H153.971Z" fill="#F3F3F3"/>
<path d="M173.926 24.2767C173.926 24.3459 173.891 24.8303 173.822 25.7297H159.722C159.976 26.8829 160.576 27.7939 161.523 28.4627C162.47 29.1315 163.648 29.4659 165.057 29.4659C166.027 29.4659 166.881 29.3276 167.621 29.0508C168.383 28.751 169.087 28.2897 169.734 27.667L172.609 30.7805C170.854 32.787 168.29 33.7903 164.918 33.7903C162.817 33.7903 160.957 33.3867 159.341 32.5794C157.724 31.7492 156.477 30.6076 155.599 29.1546C154.721 27.7016 154.283 26.0526 154.283 24.2076C154.283 22.3856 154.71 20.7481 155.564 19.2951C156.442 17.8191 157.632 16.6775 159.133 15.8703C160.657 15.04 162.355 14.6249 164.225 14.6249C166.05 14.6249 167.701 15.0169 169.179 15.8011C170.658 16.5852 171.812 17.7153 172.644 19.1913C173.498 20.6443 173.926 22.3395 173.926 24.2767ZM164.26 18.707C163.036 18.707 162.008 19.053 161.177 19.7449C160.345 20.4368 159.837 21.3823 159.652 22.5816H168.833C168.648 21.4054 168.14 20.4713 167.309 19.7795C166.477 19.0645 165.461 18.707 164.26 18.707Z" fill="#F3F3F3"/>
<path d="M182.686 17.3578C183.332 16.4584 184.199 15.778 185.284 15.3168C186.393 14.8555 187.663 14.6249 189.095 14.6249V19.6065C188.494 19.5604 188.09 19.5373 187.882 19.5373C186.335 19.5373 185.122 19.9755 184.245 20.8519C183.367 21.7052 182.928 22.9967 182.928 24.7265V33.5135H177.524V14.9016H182.686V17.3578Z" fill="#F3F3F3"/>
<path d="M32.5687 5.94597C37.3022 5.94597 41.1395 9.78323 41.1395 14.5167L41.1395 22.973C36.406 22.973 32.5687 19.1357 32.5687 14.4022L32.5687 5.94597Z" fill="#F3F3F3"/>
<path d="M24.8552 40C22.4885 40 20.5698 38.0942 20.5698 35.7432L20.5698 5.94598L24.8552 5.94598C27.2219 5.94598 29.1406 7.85179 29.1406 10.2027L29.1406 40L24.8552 40Z" fill="#F3F3F3"/>
<path d="M13.7989 40C8.91795 40 6.47747 40 4.61985 39.0415C3.05446 38.2338 1.77811 36.9659 0.964951 35.411C-2.81649e-07 33.5658 -3.87764e-07 31.1416 -5.99995e-07 26.2932L-1.49067e-06 5.94596L3.34259 5.94596C8.22356 5.94596 10.664 5.94596 12.5216 6.90447C14.087 7.71219 15.3634 8.98002 16.1766 10.535C17.1415 12.3802 17.1415 14.8043 17.1415 19.6527L17.1415 40L13.7989 40Z" fill="#F3F3F3"/>
</svg>
